<svg xmlns="http://www.w3.org/2000/svg" width="1600" height="900" viewBox="0 0 1600 900"><rect width="1600" height="900" fill="#fdf9f4"/><rect x="60" y="60" width="1480" height="780" rx="44" fill="#fff" stroke="#e4ddd0" stroke-width="2"/><text x="115" y="145" font-family="Helvetica,Arial,sans-serif" font-size="24" letter-spacing="5" font-weight="bold" fill="#cf1749">TÉCNICAS Y MATERIALES · LÁTEX TRANSPARENTE</text><text x="115" y="228" font-family="Georgia,serif" font-size="64" fill="#231a39">Confeti que se ve</text><text x="115" y="285" font-family="Helvetica,Arial,sans-serif" font-size="27" fill="#635c72">Relleno ligero · tamaño correcto · frotado suave</text><ellipse cx="365" cy="506" rx="121" ry="160" fill="#f6f6f4" stroke="#a99aaa" stroke-width="4"/><path d="m355 666 20 0 -10 -18z" fill="#bdacb7"/><path d="M365 669q-30 35 0 71" fill="none" stroke="#bdacb7" stroke-width="3"/><circle cx="385.0" cy="620.0" r="6" fill="#daa33e"/><circle cx="340.0" cy="610.0" r="7" fill="#d85d7f"/><circle cx="369.1" cy="600.0" r="8" fill="#bcaad5"/><circle cx="402.9" cy="590.0" r="9" fill="#daa33e"/><circle cx="290.1" cy="620.0" r="6" fill="#d85d7f"/><circle cx="440.7" cy="610.0" r="7" fill="#bcaad5"/><circle cx="359.9" cy="600.0" r="8" fill="#daa33e"/><circle cx="349.1" cy="590.0" r="9" fill="#d85d7f"/><circle cx="410.2" cy="620.0" r="6" fill="#bcaad5"/><circle cx="307.9" cy="610.0" r="7" fill="#daa33e"/><circle cx="396.5" cy="600.0" r="8" fill="#d85d7f"/><circle cx="392.8" cy="590.0" r="9" fill="#bcaad5"/><circle cx="347.6" cy="620.0" r="6" fill="#daa33e"/><circle cx="398.1" cy="610.0" r="7" fill="#d85d7f"/><circle cx="337.9" cy="600.0" r="8" fill="#bcaad5"/><circle cx="356.1" cy="590.0" r="9" fill="#daa33e"/><circle cx="423.9" cy="620.0" r="6" fill="#d85d7f"/><circle cx="275.1" cy="610.0" r="7" fill="#bcaad5"/><circle cx="378.9" cy="600.0" r="8" fill="#daa33e"/><circle cx="364.1" cy="590.0" r="9" fill="#d85d7f"/><circle cx="333.5" cy="620.0" r="6" fill="#bcaad5"/><circle cx="426.6" cy="610.0" r="7" fill="#daa33e"/><circle cx="303.5" cy="600.0" r="8" fill="#d85d7f"/><ellipse cx="313" cy="434" rx="16" ry="47" fill="white" opacity=".8" transform="rotate(22 313 434)"/><text x="365" y="788" text-anchor="middle" font-family="Helvetica,Arial,sans-serif" font-size="27" fill="#41364e">1. Infla</text><ellipse cx="800" cy="506" rx="121" ry="160" fill="#f6f6f4" stroke="#a99aaa" stroke-width="4"/><path d="m790 666 20 0 -10 -18z" fill="#bdacb7"/><path d="M800 669q-30 35 0 71" fill="none" stroke="#bdacb7" stroke-width="3"/><circle cx="820.0" cy="507.0" r="6" fill="#daa33e"/><circle cx="775.0" cy="538.7" r="7" fill="#d85d7f"/><circle cx="804.1" cy="441.0" r="8" fill="#bcaad5"/><circle cx="837.9" cy="574.7" r="9" fill="#daa33e"/><circle cx="725.1" cy="489.1" r="6" fill="#d85d7f"/><circle cx="875.7" cy="439.8" r="7" fill="#bcaad5"/><circle cx="794.9" cy="533.7" r="8" fill="#daa33e"/><circle cx="784.1" cy="465.5" r="9" fill="#d85d7f"/><circle cx="845.2" cy="529.2" r="6" fill="#bcaad5"/><circle cx="742.9" cy="540.3" r="7" fill="#daa33e"/><circle cx="831.5" cy="411.6" r="8" fill="#d85d7f"/><circle cx="827.8" cy="625.1" r="9" fill="#bcaad5"/><circle cx="782.6" cy="493.4" r="6" fill="#daa33e"/><circle cx="833.1" cy="496.4" r="7" fill="#d85d7f"/><circle cx="772.9" cy="561.7" r="8" fill="#bcaad5"/><circle cx="791.1" cy="422.3" r="9" fill="#daa33e"/><circle cx="858.9" cy="573.3" r="6" fill="#d85d7f"/><circle cx="710.1" cy="514.2" r="7" fill="#bcaad5"/><circle cx="813.9" cy="487.2" r="8" fill="#daa33e"/><circle cx="799.1" cy="553.9" r="9" fill="#d85d7f"/><circle cx="768.5" cy="457.0" r="6" fill="#bcaad5"/><circle cx="861.6" cy="516.7" r="7" fill="#daa33e"/><circle cx="738.5" cy="568.7" r="8" fill="#d85d7f"/><ellipse cx="748" cy="434" rx="16" ry="47" fill="white" opacity=".8" transform="rotate(22 748 434)"/><text x="800" y="788" text-anchor="middle" font-family="Helvetica,Arial,sans-serif" font-size="27" fill="#41364e">2. Frota</text><ellipse cx="1235" cy="506" rx="121" ry="160" fill="#f6f6f4" stroke="#a99aaa" stroke-width="4"/><path d="m1225 666 20 0 -10 -18z" fill="#bdacb7"/><path d="M1235 669q-30 35 0 71" fill="none" stroke="#bdacb7" stroke-width="3"/><circle cx="1255.0" cy="507.0" r="6" fill="#daa33e"/><circle cx="1210.0" cy="538.7" r="7" fill="#d85d7f"/><circle cx="1239.1" cy="441.0" r="8" fill="#bcaad5"/><circle cx="1272.9" cy="574.7" r="9" fill="#daa33e"/><circle cx="1160.1" cy="489.1" r="6" fill="#d85d7f"/><circle cx="1310.7" cy="439.8" r="7" fill="#bcaad5"/><circle cx="1229.9" cy="533.7" r="8" fill="#daa33e"/><circle cx="1219.1" cy="465.5" r="9" fill="#d85d7f"/><circle cx="1280.2" cy="529.2" r="6" fill="#bcaad5"/><circle cx="1177.9" cy="540.3" r="7" fill="#daa33e"/><circle cx="1266.5" cy="411.6" r="8" fill="#d85d7f"/><circle cx="1262.8" cy="625.1" r="9" fill="#bcaad5"/><circle cx="1217.6" cy="493.4" r="6" fill="#daa33e"/><circle cx="1268.1" cy="496.4" r="7" fill="#d85d7f"/><circle cx="1207.9" cy="561.7" r="8" fill="#bcaad5"/><circle cx="1226.1" cy="422.3" r="9" fill="#daa33e"/><circle cx="1293.9" cy="573.3" r="6" fill="#d85d7f"/><circle cx="1145.1" cy="514.2" r="7" fill="#bcaad5"/><circle cx="1248.9" cy="487.2" r="8" fill="#daa33e"/><circle cx="1234.1" cy="553.9" r="9" fill="#d85d7f"/><circle cx="1203.5" cy="457.0" r="6" fill="#bcaad5"/><circle cx="1296.6" cy="516.7" r="7" fill="#daa33e"/><circle cx="1173.5" cy="568.7" r="8" fill="#d85d7f"/><ellipse cx="1183" cy="434" rx="16" ry="47" fill="white" opacity=".8" transform="rotate(22 1183 434)"/><text x="1235" y="788" text-anchor="middle" font-family="Helvetica,Arial,sans-serif" font-size="27" fill="#41364e">3. Gira</text><path d="M570 510h65m-17-15 17 15-17 15M1005 510h65m-17-15 17 15-17 15" stroke="#cf1749" stroke-width="5" fill="none" stroke-linecap="round"/><rect x="850" y="516" width="80" height="78" rx="18" fill="#bddbd6" stroke="#75aaa0" stroke-width="3" transform="rotate(-20 890 555)"/></svg>